Genre: Action | Sci-Fi | Thriller
Language:English
 
http://www.imdb.com/title/tt1188729/

Source:BluRay.DTS.x264-HDxT
Subtitles:Romana


Format : MPEG-4
Format profile : Base Media
Codec ID : isom
File size : 2.35 GiB
Duration : 1h 47mn
Overall bit rate : 3 114 Kbps


Video
Format profile : High@L4.1
Format settings, CABAC : Yes
Format settings, ReFrames : 3 frames
Codec ID : avc1
Codec ID/Info : Advanced Video Coding
Duration : 1h 47mn
Bit rate mode : Variable
Bit rate : 2 692 Kbps
Maximum bit rate : 22.2 Mbps
Width : 1 280 pixels
Height : 544 pixels
Display aspect ratio : 2.35:1
Frame rate mode : Constant
Frame rate : 24.000 fps
Color space : YUV
Chroma subsampling : 4:2:0
Bit depth : 8 bits
Scan type : Progressive
Bits/(Pixel*Frame) : 0.161
Stream size : 2.01 GiB (86%)
Writing library : x264


Audio
ID : 2
Format : AAC
Format/Info : Advanced Audio Codec
Format version : Version 4
Format profile : LC
Format settings, SBR : No
Codec ID : 40
Duration : 1h 47mn
Bit rate mode : Variable
Bit rate : 447 Kbps
Maximum bit rate : 574 Kbps
Channel(s) : 6 channels
Channel positions : Front: L C R, Side: L R, LFE
Sampling rate : 48.0 KHz
Stream size : 345 MiB (14%)


Plot:
A pair of crew members aboard a spaceship wake up with no knowledge of their mission or their identities.
 
http://www.postimg.com/31000/photo-30163.jpg
 
http://www.postimg.com/31000/photo-30164.jpg
 
http://www.postimg.com/31000/photo-30166.jpg
 
http://www.postimg.com/31000/photo-30167.jpg
 
http://www.postimg.com/31000/photo-30165.jpg